<svg width="278" height="241" viewBox="0 0 278 241" xmlns="http://www.w3.org/2000/svg" xmlns:xlink="http://www.w3.org/1999/xlink"><use xlink:href="#path0_fill" transform="matrix(1 .00436 -.00397 1 65.3 4.78)" fill="#FFF"/><use xlink:href="#path1_fill" transform="matrix(1 .00436 -.00397 1 60.5 0)" fill="#252525"/><use xlink:href="#path2_fill" transform="matrix(1 .00436 -.00397 1 103.1 .82)" fill="#2E7CA0"/><use xlink:href="#path3_fill" transform="matrix(1 .00436 -.00397 1 103.1 .82)" fill="#252525"/><use xlink:href="#path4_fill" transform="matrix(1 .00436 -.00397 1 127.8 113.66)" fill="#252525"/><use xlink:href="#path5_fill" transform="translate(8.2 32.12)" fill="#C4C4C4"/><g transform="translate(-11431 -1284)"><mask id="a"><use xlink:href="#path6_fill" fill="#fff" transform="translate(11436.3 1314.79)"/></mask><g mask="url(#a)"><use xlink:href="#path7_stroke_2x" transform="translate(11436.3 1314.79)" fill="#252525"/></g></g><use xlink:href="#path8_fill" transform="translate(79.5 198.69)" fill="#C4C4C4"/><use xlink:href="#path9_fill" transform="translate(79.5 198.69)" fill="#252525"/><use xlink:href="#path10_fill" transform="translate(0 24.39)" fill="#C4C4C4"/><use xlink:href="#path11_fill" transform="translate(0 24.39)" fill="#252525"/><use xlink:href="#path12_fill" transform="translate(75.6 107.58)" fill="#252525"/><use xlink:href="#path13_fill" transform="translate(171.8 107.58)" fill="#252525"/><use xlink:href="#path12_fill" transform="matrix(-1 0 0 1 208.6 141.33)" fill="#252525"/><use xlink:href="#path14_fill" transform="matrix(-1 0 0 1 113.4 141.72)" fill="#252525"/><use xlink:href="#path15_fill" transform="matrix(-1 0 0 1 211.9 124.26)" fill="#252525"/><use xlink:href="#path16_fill" transform="matrix(-1 0 0 1 97.7 124.06)" fill="#252525"/><use xlink:href="#path8_fill" transform="translate(165.4 198.69)" fill="#C4C4C4"/><use xlink:href="#path9_fill" transform="translate(165.4 198.69)" fill="#252525"/><use xlink:href="#path17_fill" transform="matrix(-1 0 0 1 278 38)" fill="#2E7CA0"/><use xlink:href="#path18_fill" transform="matrix(-1 0 0 1 278 38)" fill="#252525"/><use xlink:href="#path19_stroke" transform="matrix(1 0 0 -1 200.9 89.75)" fill="#FFF"/><defs><path id="path0_fill" d="M.04 0l125.91.04-.04 126.8L0 126.8.04 0z"/><path id="path1_fill" fill-rule="evenodd" d="M2.52 34.9c1.38 0 2.49-1.1 2.49-2.46V9.61c0-2.58 2.1-4.67 4.7-4.67l116.1.04c2.58 0 4.68 2.1 4.68 4.67l-.04 59.83a2.48 2.48 0 0 0 2.49 2.47c1.37 0 2.48-1.1 2.48-2.47l.04-59.83c0-5.3-4.33-9.6-9.66-9.6L9.7 0A9.65 9.65 0 0 0 .05 9.6v22.84a2.48 2.48 0 0 0 2.48 2.47zm130.42 40.85a2.48 2.48 0 0 0-2.49 2.47v47.59c0 2.57-2.1 4.66-4.7 4.66l-116.08-.04c-2.6 0-4.7-2.1-4.7-4.67L5 40.45a2.48 2.48 0 0 0-2.48-2.47 2.48 2.48 0 0 0-2.49 2.47L0 125.76c0 5.3 4.34 9.6 9.67 9.6l116.08.05c5.33 0 9.67-4.3 9.67-9.6V78.22a2.48 2.48 0 0 0-2.48-2.47z"/><path id="path2_fill" d="M.24 49.02L0 0h48.5l.25 49.02-24.25-17-24.26 17z"/><path id="path3_fill" fill-rule="evenodd" d="M22.25 28.82a3.91 3.91 0 0 1 4.5 0L44.8 41.47 44.61 3.9H3.93l.19 37.61 18.13-12.7zm-22 20.2L0 0h48.5l.25 49.02-24.25-17-24.26 17z"/><path id="path4_fill" d="M0 3.05A3.05 3.05 0 0 1 3.05 0H36.9a3.05 3.05 0 1 1 0 6.1H3.05A3.05 3.05 0 0 1 0 3.04z"/><path id="path5_fill" d="M56.69 141.25h161.57l18-74.2s2.12-17.27-1.7-21.44c-3.82-4.17-185.68-2.38-185.68-2.38L41.75 16 2.04 0 0 8.85l31.57 14.3 25.12 118.1z"/><path id="path6_fill" d="M241 46.97a11.75 11.75 0 0 0-9.15-4.35H53.48l-3.7-20.76a11.82 11.82 0 0 0-6.87-8.45L11.48.99c-3-1.3-8.42-2.23-10.86 3.4-2.51 5.79 3.27 10.03 6.26 11.32l25.9 11.26 27.94 126.8c1.12 5.46 2.6 9.42 8.16 9.42h136.89c3.94 0 5.46-.04 5.46-2.67s-1.86-2.53-5.46-2.53l-136.72.07c-2 0-2.94-.97-3.38-3.08-.9-4.32-.81-3.68-1.83-8.55h151.51c5.57 0 10.43-3.96 11.56-9.43l16.5-80.18c.72-3.5-.16-7.09-2.4-9.85z"/><path id="path7_stroke_2x" d="M70.73 156.21l-3.38-3.07-3.36 3.7 3.37 3.07 3.37-3.7zM241 46.97l-3.88 3.16 3.88-3.16zM53.48 42.62l-4.92.88.74 4.12h4.18v-5zm-3.7-20.76l4.91-.88v-.06l-.02-.07-4.9 1.01zm-6.87-8.45l2-4.59-.08-.03-.08-.03-1.84 4.65zM11.48.99l-2 4.58.08.04.08.03L11.48.99zM.62 4.39L5.2 6.38.62 4.39zm6.26 11.32l2-4.58-2 4.58zm25.9 11.26l4.89-1.08-.55-2.5-2.34-1-2 4.58zm27.94 126.8l4.9-1.01-.01-.03v-.04l-4.89 1.08zm3.12-7.34v-5H57.7l1.26 6.02 4.9-1.02zM226.91 137l-4.9-1 4.9 1zm16.5-80.18l4.9 1-4.9-1zM65.67 154.98l4.9-1.02-4.9 1.02zM244.88 43.81a16.75 16.75 0 0 0-13.03-6.19v10c2.06 0 3.97.9 5.28 2.5l7.75-6.3zm-13.03-6.19H53.48v10h178.37v-10zM58.41 41.74l-3.72-20.76-9.84 1.76 3.71 20.76 9.85-1.76zm-3.74-20.89a16.82 16.82 0 0 0-9.76-12.03L40.92 18c2.03.88 3.5 2.7 3.96 4.87l9.79-2.02zM44.75 8.76L13.32-3.66l-3.68 9.3 31.44 12.42 3.67-9.3zM13.47-3.6A15.65 15.65 0 0 0 5.1-4.86c-3.7.57-7.14 2.83-9.06 7.26L5.2 6.38c.32-.72.61-1 .75-1.1.14-.11.33-.2.64-.25a5.8 5.8 0 0 1 2.9.54l3.98-9.17zm-17.44 6c-2.17 5-.6 9.43 1.7 12.4a19.04 19.04 0 0 0 7.16 5.5l3.98-9.17a9.1 9.1 0 0 1-3.23-2.46c-.4-.5-.56-.91-.61-1.2-.05-.22-.06-.55.17-1.09L-3.97 2.4zm8.86 17.9l25.9 11.25 3.99-9.17-25.9-11.25-3.99 9.17zm23.01 7.74l27.94 126.8 9.76-2.15L37.67 25.9l-9.77 2.15zm27.92 126.73c.56 2.7 1.36 6.04 3.25 8.68 2.24 3.1 5.58 4.75 9.81 4.75v-10c-.8 0-1.15-.14-1.28-.2-.1-.06-.22-.14-.4-.39-.52-.71-1.01-2.09-1.58-4.85l-9.8 2.02zm13.06 13.42h136.89v-10H68.88v10zm136.89 0c.94 0 1.95 0 2.84-.05a10.7 10.7 0 0 0 3.18-.64 6.74 6.74 0 0 0 3.53-3.06 8.1 8.1 0 0 0 .91-3.92h-10c0 .26-.05-.2.31-.87a3.38 3.38 0 0 1 1.62-1.47c.29-.1.34-.06-.2-.02-.5.03-1.17.03-2.2.03v10zm10.46-7.67a7.7 7.7 0 0 0-1.14-4.2 6.84 6.84 0 0 0-3.67-2.8 11.43 11.43 0 0 0-3.05-.5c-.83-.03-1.78-.03-2.6-.03v10c.98 0 1.6 0 2.14.02.56.03.58.08.37 0-.14-.04-.4-.15-.72-.37a3.4 3.4 0 0 1-.89-.93c-.47-.74-.44-1.32-.44-1.2h10zm-152.39-9.09h151.51v-10H63.85v10zm151.51 0c7.95 0 14.85-5.63 16.46-13.42L222 136a6.85 6.85 0 0 1-6.66 5.43v10zm16.46-13.42l16.5-80.19-9.8-2.01-16.5 80.19 9.8 2.01zm16.5-80.19a16.78 16.78 0 0 0-3.43-14l-7.75 6.3a6.77 6.77 0 0 1 1.39 5.69l9.8 2.01zM205.77 153l-62.9.04-73.82.03v10l73.82-.03 62.9-.04v-10zm-135.2.97c-.46-2.18-.67-3.12-.89-4.12-.21-.97-.44-2.01-.94-4.43l-9.8 2.04c.52 2.46.76 3.53.98 4.53l.86 4.03 9.79-2.05zm-1.52-.9c-.11 0 0-.02.25.06.28.1.6.27.9.54.54.51.5.91.37.3l-9.8 2.04a9.2 9.2 0 0 0 2.59 4.96 8.12 8.12 0 0 0 5.69 2.1v-10z"/><path id="path8_fill" d="M0 21.16A21.17 21.17 0 0 1 21.14 0a21.17 21.17 0 0 1 0 42.31A21.17 21.17 0 0 1 0 21.16z"/><path id="path9_fill" fill-rule="evenodd" d="M21.14 5A16.17 16.17 0 0 0 5 21.16c0 8.9 7.25 16.15 16.14 16.15 8.88 0 16.13-7.25 16.13-16.15M21.14 5c8.88 0 16.13 7.25 16.13 16.16L21.14 5zm0-5A21.17 21.17 0 0 0 0 21.16 21.17 21.17 0 0 0 21.14 42.3c11.65 0 21.13-9.49 21.13-21.15A21.17 21.17 0 0 0 21.14 0z"/><path id="path10_fill" d="M0 13.39a13.4 13.4 0 0 1 26.78 0c0 7.38-6 13.4-13.39 13.4C6.01 26.78 0 20.76 0 13.38z"/><path id="path11_fill" fill-rule="evenodd" d="M13.4 5A8.4 8.4 0 0 0 5 13.39a8.4 8.4 0 0 0 8.4 8.4 8.4 8.4 0 0 0 8.38-8.4M13.4 5a8.4 8.4 0 0 1 8.4 8.39L13.38 5zm0-5C6.01 0 0 6 0 13.39a13.4 13.4 0 0 0 26.78 0C26.78 6.01 20.78 0 13.4 0z"/><path id="path12_fill" d="M0 3a3 3 0 0 1 3-3h86.04a3 3 0 1 1 0 6H3a3 3 0 0 1-3-3z"/><path id="path13_fill" d="M0 3a3 3 0 0 1 3-3h32.27a3 3 0 1 1 0 6H3a3 3 0 0 1-3-3z"/><path id="path14_fill" d="M0 3a3 3 0 0 1 3-3h24.72a3 3 0 0 1 0 6H3a3 3 0 0 1-3-3z"/><path id="path15_fill" d="M0 3a3 3 0 0 1 3-3h104.26a3 3 0 0 1 0 6H3a3 3 0 0 1-3-3z"/><path id="path16_fill" d="M0 3a3 3 0 0 1 3-3h11.33a3 3 0 1 1 0 6H3a3 3 0 0 1-3-3z"/><path id="path17_fill" d="M101 50.5a50.5 50.5 0 1 1-101 0 50.5 50.5 0 0 1 101 0z"/><path id="path18_fill" fill-rule="evenodd" d="M50.5 96.52a46.02 46.02 0 1 0 0-92.04 46.02 46.02 0 0 0 0 92.04zm0 4.48a50.5 50.5 0 1 0 0-101 50.5 50.5 0 0 0 0 101z"/><path id="path19_stroke" d="M0-4a4 4 0 1 0 0 8v-8zm54.19 6.83a4 4 0 0 0 0-5.66L28.73-28.28a4 4 0 0 0-5.66 5.65L45.7 0 23.07 22.63a4 4 0 0 0 5.66 5.65L54.2 2.83zM0 4h51.36v-8H0v8z"/></defs></svg>